<svg xmlns="http://www.w3.org/2000/svg" width="24" height="24"><defs><style>.a{fill:#fff}</style></defs><path class="a" d="M12 22.81a2.265 2.265 0 0 1-1.8-.96l-1.5-2a.472.472 0 0 0-.2-.1H8c-4.17 0-6.75-1.13-6.75-6.75V8c0-4.42 2.33-6.75 6.75-6.75h8c4.42 0 6.75 2.33 6.75 6.75v5c0 4.42-2.33 6.75-6.75 6.75h-.5a.261.261 0 0 0-.2.1l-1.5 2a2.265 2.265 0 0 1-1.8.96ZM8 2.75C4.42 2.75 2.75 4.42 2.75 8v5c0 4.52 1.55 5.25 5.25 5.25h.5a1.876 1.876 0 0 1 1.4.7l1.5 2a.694.694 0 0 0 1.2 0l1.5-2a1.752 1.752 0 0 1 1.4-.7h.5c3.58 0 5.25-1.67 5.25-5.25V8c0-3.58-1.67-5.25-5.25-5.25Z"/><path class="a" d="M12 12a1 1 0 1 1 1-1 1 1 0 0 1-1 1ZM16 12a1 1 0 1 1 1-1 1 1 0 0 1-1 1ZM8 12a1 1 0 1 1 1-1 1 1 0 0 1-1 1Z"/></svg>